<?xml version="1.0" encoding="UTF-8" standalone="no"?>
<!-- Created with Inkscape (http://www.inkscape.org/) -->

<svg
   version="1.1"
   id="svg2"
   xml:space="preserve"
   width="418.26666"
   height="88.546669"
   viewBox="0 0 418.26666 88.546669"
   sodipodi:docname="Cert_Trainer_App_Dev_w_Swift_blk_0620.eps"
   xmlns:inkscape="http://www.inkscape.org/namespaces/inkscape"
   xmlns:sodipodi="http://sodipodi.sourceforge.net/DTD/sodipodi-0.dtd"
   xmlns="http://www.w3.org/2000/svg"
   xmlns:svg="http://www.w3.org/2000/svg">
   <defs
     id="defs6" />
     <sodipodi:namedview
     id="namedview4"
     pagecolor="currentColorfff"
     bordercolor="#666666"
     borderopacity="1.0"
     inkscape:pageshadow="2"
     inkscape:pageopacity="0.0"
     inkscape:pagecheckerboard="0" />
     <g
     id="g8"
     inkscape:groupmode="layer"
     inkscape:label="ink_ext_XXXXXX"
     transform="matrix(1.3333333,0,0,-1.3333333,0,88.546667)">
     <g
       id="g10"
       transform="scale(0.1)">
       <path
         d="m 690.941,398.27 c 0,71.41 40.317,116.41 103.282,116.41 51.093,0 89.687,-31.41 95.625,-78.442 H 855.16 c -6.25,28.907 -30.312,47.817 -60.937,47.817 -40.938,0 -67.5,-33.594 -67.5,-85.785 0,-52.657 26.25,-85.934 67.66,-85.934 31.402,0 53.75,16.094 60.777,43.277 h 34.848 c -8.598,-46.558 -43.91,-73.902 -95.785,-73.902 -63.282,0 -103.282,44.684 -103.282,116.559"
         style="fill:currentColor;fill-opacity:1;fill-rule:nonzero;stroke:none"
         id="path12" /><path
         d="m 948.219,382.805 h 82.191 c -0.78,25.156 -16.87,41.715 -40.316,41.715 -23.281,0 -40.156,-16.875 -41.875,-41.715 z m 114.071,-49.067 c -4.54,-29.843 -33.6,-50.308 -70.79,-50.308 -47.812,0 -77.5,32.031 -77.5,83.433 0,51.567 29.844,85 76.094,85 45.476,0 74.066,-31.25 74.066,-81.093 V 359.211 H 948.063 v -2.031 c 0,-28.125 17.656,-46.567 44.218,-46.567 18.759,0 33.439,8.907 37.969,23.125 h 32.04"
         style="fill:currentColor;fill-opacity:1;fill-rule:nonzero;stroke:none"
         id="path14" /><path
         d="m 1094.08,449.836 h 32.19 v -27.973 h 0.78 c 5.16,18.598 20.16,29.692 39.53,29.692 4.85,0 8.91,-0.625 11.57,-1.25 v -31.567 c -2.66,1.098 -8.6,2.032 -15.16,2.032 -21.72,0 -35.16,-14.684 -35.16,-37.809 v -97.5 h -33.75 v 164.375"
         style="fill:currentColor;fill-opacity:1;fill-rule:nonzero;stroke:none"
         id="path16" /><path
         d="m 1246.68,488.738 v -38.902 h 31.25 v -26.723 h -31.25 v -90.625 c 0,-14.058 6.25,-20.625 20,-20.625 3.44,0 8.91,0.473 11.09,0.782 v -26.559 c -3.75,-0.941 -11.25,-1.566 -18.75,-1.566 -33.28,0 -46.25,12.5 -46.25,44.375 v 94.218 h -23.9 v 26.723 h 23.9 v 38.902 h 33.91"
         style="fill:currentColor;fill-opacity:1;fill-rule:nonzero;stroke:none"
         id="path18" /><path
         d="m 1310.52,449.836 h 33.75 V 285.461 h -33.75 z m -2.66,43.277 c 0,10.782 8.75,19.375 19.53,19.375 10.94,0 19.69,-8.593 19.69,-19.375 0,-10.625 -8.75,-19.218 -19.69,-19.218 -10.78,0 -19.53,8.593 -19.53,19.218"
         style="fill:currentColor;fill-opacity:1;fill-rule:nonzero;stroke:none"
         id="path20" /><path
         d="m 1487.64,449.836 h 33.75 V 285.461 h -33.75 z m -2.66,43.277 c 0,10.782 8.75,19.375 19.53,19.375 10.94,0 19.69,-8.593 19.69,-19.375 0,-10.625 -8.75,-19.218 -19.69,-19.218 -10.78,0 -19.53,8.593 -19.53,19.218 z m -92.5,-70 h -22.66 v 26.723 h 22.66 v 14.844 c 0,30.933 13.91,44.215 47.81,44.215 6.1,0 11.57,-0.465 17.03,-1.407 V 482.02 c -3.43,0.625 -7.81,1.093 -12.18,1.093 -13.44,0 -19.07,-5.777 -19.22,-19.527 v -13.75 h 31.56 v -26.723 h -31.09 V 285.461 h -33.91 v 137.652"
         style="fill:currentColor;fill-opacity:1;fill-rule:nonzero;stroke:none"
         id="path22" /><path
         d="m 1588.19,382.805 h 82.19 c -0.78,25.156 -16.87,41.715 -40.31,41.715 -23.28,0 -40.16,-16.875 -41.88,-41.715 z m 114.07,-49.067 c -4.53,-29.843 -33.6,-50.308 -70.78,-50.308 -47.82,0 -77.5,32.031 -77.5,83.433 0,51.567 29.84,85 76.09,85 45.47,0 74.06,-31.25 74.06,-81.093 v -11.559 h -116.09 v -2.031 c 0,-28.125 17.65,-46.567 44.22,-46.567 18.75,0 33.43,8.907 37.97,23.125 h 32.03"
         style="fill:currentColor;fill-opacity:1;fill-rule:nonzero;stroke:none"
         id="path24" /><path
         d="m 1758.05,367.645 c 0,-33.75 17.19,-55.309 43.44,-55.309 25.94,0 43.28,21.875 43.28,55.309 0,33.125 -17.34,55.16 -43.28,55.16 -26.25,0 -43.44,-21.719 -43.44,-55.16 z m -34.53,0 c 0,50.785 27.97,83.91 68.75,83.91 23.6,0 42.19,-10.942 51.56,-29.067 h 0.63 v 88.442 h 33.91 V 285.461 h -32.82 v 27.969 h -0.62 c -9.69,-18.75 -28.44,-29.692 -52.35,-29.692 -41.09,0 -69.06,33.125 -69.06,83.907"
         style="fill:currentColor;fill-opacity:1;fill-rule:nonzero;stroke:none"
         id="path26" /><path
         d="M 2045.42,285.461 V 480.77 h -69.07 v 30.16 h 172.97 v -30.16 h -68.9 V 285.461 h -35"
         style="fill:currentColor;fill-opacity:1;fill-rule:nonzero;stroke:none"
         id="path28" /><path
         d="m 2152.58,449.836 h 32.19 v -27.973 h 0.78 c 5.16,18.598 20.16,29.692 39.53,29.692 4.85,0 8.91,-0.625 11.57,-1.25 v -31.567 c -2.66,1.098 -8.6,2.032 -15.16,2.032 -21.72,0 -35.16,-14.684 -35.16,-37.809 v -97.5 h -33.75 v 164.375"
         style="fill:currentColor;fill-opacity:1;fill-rule:nonzero;stroke:none"
         id="path30" /><path
         d="m 2352.95,347.02 v 12.66 l -40.46,-2.5 c -20.16,-1.25 -31.57,-10 -31.57,-24.067 0,-14.375 11.88,-23.75 30,-23.75 23.6,0 42.03,16.25 42.03,37.657 z m -106.09,-14.84 c 0,28.75 22.03,46.09 61.09,48.433 l 45,2.5 v 12.5 c 0,18.282 -12.03,28.598 -32.5,28.598 -18.75,0 -31.87,-8.906 -34.53,-23.125 h -31.56 c 0.94,29.684 28.59,50.777 67.03,50.777 39.22,0 65.16,-21.402 65.16,-53.75 V 285.461 h -32.35 v 27.027 h -0.78 c -9.53,-18.277 -30.31,-29.843 -51.87,-29.843 -32.19,0 -54.69,20 -54.69,49.535"
         style="fill:currentColor;fill-opacity:1;fill-rule:nonzero;stroke:none"
         id="path32" /><path
         d="m 2424.14,449.836 h 33.75 V 285.461 h -33.75 z m -2.66,43.277 c 0,10.782 8.75,19.375 19.53,19.375 10.94,0 19.69,-8.593 19.69,-19.375 0,-10.625 -8.75,-19.218 -19.69,-19.218 -10.78,0 -19.53,8.593 -19.53,19.218"
         style="fill:currentColor;fill-opacity:1;fill-rule:nonzero;stroke:none"
         id="path34" /><path
         d="m 2496.26,449.836 h 32.18 v -27.973 h 0.78 c 9.85,19.692 26.41,29.848 51.72,29.848 36.25,0 57.03,-23.281 57.03,-60.941 V 285.461 h -33.9 v 98.75 c 0,24.684 -11.41,38.434 -35.16,38.434 -24.22,0 -38.9,-17.184 -38.9,-42.5 v -94.684 h -33.75 v 164.375"
         style="fill:currentColor;fill-opacity:1;fill-rule:nonzero;stroke:none"
         id="path36" /><path
         d="m 2694.79,382.805 h 82.19 c -0.78,25.156 -16.88,41.715 -40.31,41.715 -23.29,0 -40.16,-16.875 -41.88,-41.715 z m 114.06,-49.067 c -4.53,-29.843 -33.59,-50.308 -70.78,-50.308 -47.81,0 -77.5,32.031 -77.5,83.433 0,51.567 29.85,85 76.1,85 45.46,0 74.06,-31.25 74.06,-81.093 v -11.559 h -116.1 v -2.031 c 0,-28.125 17.66,-46.567 44.22,-46.567 18.75,0 33.44,8.907 37.97,23.125 h 32.03"
         style="fill:currentColor;fill-opacity:1;fill-rule:nonzero;stroke:none"
         id="path38" /><path
         d="m 2840.66,449.836 h 32.19 v -27.973 h 0.78 c 5.16,18.598 20.16,29.692 39.53,29.692 4.84,0 8.91,-0.625 11.56,-1.25 v -31.567 c -2.65,1.098 -8.59,2.032 -15.15,2.032 -21.72,0 -35.16,-14.684 -35.16,-37.809 v -97.5 h -33.75 v 164.375"
         style="fill:currentColor;fill-opacity:1;fill-rule:nonzero;stroke:none"
         id="path40" /><path
         d="m 736.02,89.1602 h 45.703 l -22.555,64.2578 h -0.59 z m 50.878,-14.9414 h -56.05 L 716.684,33.8867 h -18.457 l 51.957,140.9183 h 17.379 L 819.516,33.8867 h -18.457 l -14.161,40.3321"
         style="fill:currentColor;fill-opacity:1;fill-rule:nonzero;stroke:none"
         id="path42" /><path
         d="m 911.781,84.668 c 0,22.168 -11.718,36.719 -29.39,36.719 -17.289,0 -29.106,-14.942 -29.106,-36.719 0,-21.875 11.817,-36.7188 29.106,-36.7188 17.672,0 29.39,14.4531 29.39,36.7188 z m 17.387,0 c 0,-31.0547 -17.484,-51.7578 -43.07,-51.7578 -14.453,0 -25.977,6.3476 -32.325,17.4804 h -0.386 V 0 h -16.996 v 135.449 h 16.117 v -16.504 h 0.387 c 5.957,10.547 18.75,17.481 32.816,17.481 25.879,0 43.457,-20.703 43.457,-51.758"
         style="fill:currentColor;fill-opacity:1;fill-rule:nonzero;stroke:none"
         id="path44" /><path
         d="m 1025.05,84.668 c 0,22.168 -11.71,36.719 -29.394,36.719 -17.285,0 -29.101,-14.942 -29.101,-36.719 0,-21.875 11.816,-36.7188 29.101,-36.7188 17.684,0 29.394,14.4531 29.394,36.7188 z m 17.39,0 c 0,-31.0547 -17.48,-51.7578 -43.073,-51.7578 -14.453,0 -25.976,6.3476 -32.324,17.4804 h -0.391 V 0 H 949.66 v 135.449 h 16.113 v -16.504 h 0.391 c 5.957,10.547 18.75,17.481 32.813,17.481 25.883,0 43.463,-20.703 43.463,-51.758"
         style="fill:currentColor;fill-opacity:1;fill-rule:nonzero;stroke:none"
         id="path46" /><path
         d="m 1127.55,49.707 h 28.62 c 31.93,0 49.7,19.5313 49.7,54.492 0,35.254 -17.67,54.785 -49.7,54.785 h -28.62 z m 29.79,125.098 c 41.8,0 66.5,-26.075 66.5,-70.41 0,-44.4341 -24.61,-70.5083 -66.5,-70.5083 h -47.36 V 174.805 h 47.36"
         style="fill:currentColor;fill-opacity:1;fill-rule:nonzero;stroke:none"
         id="path48" /><path
         d="m 1258.98,93.3594 h 55.18 c -0.39,16.9926 -11.23,28.3206 -27.05,28.3206 -15.73,0 -27.06,-11.426 -28.13,-28.3206 z m 71.48,-30.3711 c -2.83,-17.5781 -20.5,-30.0781 -42.28,-30.0781 -28.71,0 -46.78,19.8242 -46.78,51.3671 0,31.5427 18.17,52.1487 46,52.1487 27.24,0 44.33,-19.141 44.33,-49.9026 v -6.4453 h -72.85 v -0.9765 c 0,-19.043 11.82,-31.4453 29.69,-31.4453 12.5,0 22.36,5.957 25.2,15.332 h 16.69"
         style="fill:currentColor;fill-opacity:1;fill-rule:nonzero;stroke:none"
         id="path50" /><path
         d="m 1398.22,33.8867 h -17.38 l -37.41,101.5623 h 17.87 l 28.03,-83.4959 h 0.39 l 28.13,83.4959 h 17.67 l -37.3,-101.5623"
         style="fill:currentColor;fill-opacity:1;fill-rule:nonzero;stroke:none"
         id="path52" /><path
         d="m 1461.87,93.3594 h 55.18 c -0.39,16.9926 -11.23,28.3206 -27.05,28.3206 -15.73,0 -27.05,-11.426 -28.13,-28.3206 z m 71.49,-30.3711 c -2.84,-17.5781 -20.51,-30.0781 -42.29,-30.0781 -28.71,0 -46.78,19.8242 -46.78,51.3671 0,31.5427 18.17,52.1487 46,52.1487 27.24,0 44.33,-19.141 44.33,-49.9026 v -6.4453 h -72.85 v -0.9765 c 0,-19.043 11.82,-31.4453 29.69,-31.4453 12.5,0 22.36,5.957 25.2,15.332 h 16.7"
         style="fill:currentColor;fill-opacity:1;fill-rule:nonzero;stroke:none"
         id="path54" /><path
         d="m 1555.99,174.805 h 16.99 V 33.8867 h -16.99 V 174.805"
         style="fill:currentColor;fill-opacity:1;fill-rule:nonzero;stroke:none"
         id="path56" /><path
         d="m 1671.11,84.668 c 0,23.145 -11.04,36.816 -29.69,36.816 -18.75,0 -29.78,-13.769 -29.78,-36.816 0,-23.1446 11.13,-36.8164 29.78,-36.8164 18.65,0 29.69,13.6718 29.69,36.8164 z m -76.76,0 c 0,31.641 18.36,51.758 47.07,51.758 28.61,0 46.97,-20.117 46.97,-51.758 0,-31.543 -18.36,-51.7578 -46.97,-51.7578 -28.71,0 -47.07,20.2148 -47.07,51.7578"
         style="fill:currentColor;fill-opacity:1;fill-rule:nonzero;stroke:none"
         id="path58" /><path
         d="m 1784.28,84.668 c 0,22.168 -11.72,36.719 -29.39,36.719 -17.29,0 -29.1,-14.942 -29.1,-36.719 0,-21.875 11.81,-36.7188 29.1,-36.7188 17.67,0 29.39,14.4531 29.39,36.7188 z m 17.39,0 c 0,-31.0547 -17.48,-51.7578 -43.07,-51.7578 -14.45,0 -25.98,6.3476 -32.32,17.4804 h -0.4 V 0 h -16.99 v 135.449 h 16.12 v -16.504 h 0.39 c 5.95,10.547 18.75,17.481 32.81,17.481 25.88,0 43.46,-20.703 43.46,-51.758"
         style="fill:currentColor;fill-opacity:1;fill-rule:nonzero;stroke:none"
         id="path60" /><path
         d="m 1822.15,135.449 h 16.02 v -16.601 h 0.39 c 4.79,10.937 15.63,17.578 28.81,17.578 13.87,0 24.12,-7.031 28.51,-19.336 h 0.4 c 5.66,12.109 17.57,19.336 31.83,19.336 20.12,0 33.11,-13.086 33.11,-33.203 V 33.8867 h -17 v 65.4297 c 0,13.8676 -7.71,22.0706 -21.09,22.0706 -13.48,0 -22.95,-9.961 -22.95,-23.7307 V 33.8867 h -16.99 v 67.2853 c 0,12.207 -8.2,20.215 -20.8,20.215 -13.48,0 -23.24,-10.547 -23.24,-24.6097 V 33.8867 h -17 V 135.449"
         style="fill:currentColor;fill-opacity:1;fill-rule:nonzero;stroke:none"
         id="path62" /><path
         d="m 1998.79,93.3594 h 55.18 c -0.39,16.9926 -11.23,28.3206 -27.05,28.3206 -15.72,0 -27.05,-11.426 -28.13,-28.3206 z m 71.49,-30.3711 c -2.83,-17.5781 -20.51,-30.0781 -42.29,-30.0781 -28.71,0 -46.77,19.8242 -46.77,51.3671 0,31.5427 18.16,52.1487 45.99,52.1487 27.25,0 44.34,-19.141 44.34,-49.9026 v -6.4453 h -72.85 v -0.9765 c 0,-19.043 11.81,-31.4453 29.68,-31.4453 12.5,0 22.37,5.957 25.2,15.332 h 16.7"
         style="fill:currentColor;fill-opacity:1;fill-rule:nonzero;stroke:none"
         id="path64" /><path
         d="m 2092.04,135.449 h 16.01 v -16.601 h 0.39 c 6.35,11.621 16.51,17.578 32.23,17.578 22.27,0 35.16,-14.356 35.16,-37.4026 V 33.8867 h -17 v 62.1094 c 0,16.4059 -7.61,25.3909 -23.43,25.3909 -16.41,0 -26.37,-11.426 -26.37,-28.6136 V 33.8867 h -16.99 V 135.449"
         style="fill:currentColor;fill-opacity:1;fill-rule:nonzero;stroke:none"
         id="path66" /><path
         d="m 2223.27,159.961 v -24.512 h 19.72 v -13.965 h -19.72 V 61.2305 c 0,-9.2774 3.9,-13.4766 12.6,-13.4766 1.95,0 5.85,0.293 7.03,0.4883 V 33.9844 c -2.05,-0.4883 -6.74,-0.7813 -10.75,-0.7813 -18.65,0 -25.87,7.6172 -25.87,27.1485 v 61.1324 h -15.14 v 13.965 h 15.14 v 24.512 h 16.99"
         style="fill:currentColor;fill-opacity:1;fill-rule:nonzero;stroke:none"
         id="path68" /><path
         d="m 2409.76,33.8867 h -17.28 L 2369.53,112.5 h -0.39 L 2346.28,33.8867 H 2329 l -28.42,101.5623 h 16.9 l 20.31,-82.617 h 0.39 l 22.95,82.617 h 16.4 l 23.05,-82.617 h 0.39 l 20.31,82.617 h 16.8 L 2409.76,33.8867"
         style="fill:currentColor;fill-opacity:1;fill-rule:nonzero;stroke:none"
         id="path70" /><path
         d="m 2456.23,135.449 h 16.99 V 33.8867 h -16.99 z m -2.05,27.637 c 0,5.859 4.78,10.547 10.54,10.547 5.86,0 10.65,-4.688 10.65,-10.547 0,-5.762 -4.79,-10.547 -10.65,-10.547 -5.76,0 -10.54,4.785 -10.54,10.547"
         style="fill:currentColor;fill-opacity:1;fill-rule:nonzero;stroke:none"
         id="path72" /><path
         d="m 2522.03,159.961 v -24.512 h 19.72 v -13.965 h -19.72 V 61.2305 c 0,-9.2774 3.9,-13.4766 12.59,-13.4766 1.96,0 5.86,0.293 7.04,0.4883 V 33.9844 c -2.05,-0.4883 -6.74,-0.7813 -10.75,-0.7813 -18.65,0 -25.88,7.6172 -25.88,27.1485 v 61.1324 h -15.13 v 13.965 h 15.13 v 24.512 h 17"
         style="fill:currentColor;fill-opacity:1;fill-rule:nonzero;stroke:none"
         id="path74" /><path
         d="m 2564.1,174.805 h 16.99 v -55.957 h 0.39 c 6.25,11.621 16.7,17.578 32.23,17.578 22.26,0 35.74,-15.039 35.74,-37.6955 V 33.8867 h -16.99 v 61.7188 c 0,16.1135 -8.11,25.7815 -24.03,25.7815 -16.89,0 -27.34,-11.524 -27.34,-29.1018 V 33.8867 H 2564.1 V 174.805"
         style="fill:currentColor;fill-opacity:1;fill-rule:nonzero;stroke:none"
         id="path76" /><path
         d="m 2732.42,72.6563 c 1.66,-15.2344 16.11,-25.293 36.23,-25.293 19.04,0 32.91,10.0586 32.91,23.9258 0,11.914 -8.3,19.2382 -27.25,24.1211 l -18.06,4.6878 c -25.98,6.64 -37.5,18.066 -37.5,37.207 0,23.437 20.5,39.843 49.8,39.843 28.03,0 48.34,-16.601 49.12,-40.234 h -17.58 c -1.56,15.137 -13.77,24.414 -32.13,24.414 -18.26,0 -30.95,-9.473 -30.95,-23.242 0,-10.645 7.81,-16.992 26.95,-21.973 l 14.75,-3.906 c 29.2,-7.324 41.01,-18.5547 41.01,-38.7695 0,-25.7812 -20.31,-41.8945 -52.73,-41.8945 -29.88,0 -50.59,16.2109 -52.25,41.1133 h 17.68"
         style="fill:currentColor;fill-opacity:1;fill-rule:nonzero;stroke:none"
         id="path78" /><path
         d="M 2941.88,33.8867 H 2924.6 L 2901.65,112.5 h -0.39 L 2878.4,33.8867 h -17.28 L 2832.7,135.449 h 16.9 l 20.31,-82.617 h 0.39 l 22.95,82.617 h 16.4 l 23.05,-82.617 h 0.39 l 20.31,82.617 h 16.8 L 2941.88,33.8867"
         style="fill:currentColor;fill-opacity:1;fill-rule:nonzero;stroke:none"
         id="path80" /><path
         d="m 2988.35,135.449 h 16.99 V 33.8867 h -16.99 z m -2.06,27.637 c 0,5.859 4.79,10.547 10.55,10.547 5.86,0 10.65,-4.688 10.65,-10.547 0,-5.762 -4.79,-10.547 -10.65,-10.547 -5.76,0 -10.55,4.785 -10.55,10.547"
         style="fill:currentColor;fill-opacity:1;fill-rule:nonzero;stroke:none"
         id="path82" /><path
         d="m 3037.15,121.484 h -14.16 v 13.965 h 14.16 v 9.375 c 0,18.848 8.21,27.149 27.35,27.149 3.32,0 6.15,-0.293 9.37,-0.782 v -13.867 c -2.24,0.391 -5.08,0.684 -7.71,0.684 -8.4,0 -12.01,-3.906 -12.11,-13.281 v -9.278 h 19.82 v -13.965 h -19.72 V 33.8867 h -17 v 87.5973"
         style="fill:currentColor;fill-opacity:1;fill-rule:nonzero;stroke:none"
         id="path84" /><path
         d="m 3117.31,159.961 v -24.512 h 19.73 v -13.965 h -19.73 V 61.2305 c 0,-9.2774 3.91,-13.4766 12.6,-13.4766 1.95,0 5.86,0.293 7.03,0.4883 V 33.9844 c -2.05,-0.4883 -6.74,-0.7813 -10.74,-0.7813 -18.66,0 -25.88,7.6172 -25.88,27.1485 v 61.1324 h -15.14 v 13.965 h 15.14 v 24.512 h 16.99"
         style="fill:currentColor;fill-opacity:1;fill-rule:nonzero;stroke:none"
         id="path86" /><path
         d="m 349.996,563.246 c 22.109,26.738 36.934,63.867 32.871,100.84 -31.777,-1.172 -70.273,-21.148 -93.027,-47.852 -20.449,-23.629 -38.379,-61.445 -33.516,-97.656 35.41,-2.754 71.66,18.008 93.672,44.668 z M 514.313,200.789 c -0.782,-2.226 -13.282,-45.312 -43.75,-89.82 -26.309,-38.4963 -53.633,-76.8596 -96.7,-77.6409 -42.285,-0.8008 -55.898,25.1016 -104.218,25.1016 -48.379,0 -63.497,-24.3203 -103.477,-25.9024 -41.543,-1.5585 -73.2227,41.6211 -99.7266,79.9607 -54.2773,78.442 -95.6836,221.621 -40,318.203 27.5781,48.024 77.0116,78.418 130.6446,79.196 40.84,0.761 79.297,-27.422 104.258,-27.422 24.922,0 71.699,33.93 120.879,28.945 20.586,-0.879 78.398,-8.281 115.527,-62.637 -2.949,-1.875 -68.984,-40.289 -68.262,-120.171 0.86,-95.625 83.848,-127.418 84.825,-127.813"
         style="fill:currentColor;fill-opacity:1;fill-rule:nonzero;stroke:none"
         id="path88" /></g></g></svg>
