<?xml version="1.0" encoding="UTF-8" standalone="no"?>
<!-- Created with Inkscape (http://www.inkscape.org/) -->

<svg
   width="93.878899mm"
   height="16.855139mm"
   viewBox="0 0 93.878899 16.855139"
   version="1.1"
   id="svg200"
   xmlns="http://www.w3.org/2000/svg"
   xmlns:svg="http://www.w3.org/2000/svg">
  <defs
     id="defs197">
    <rect
       x="74.697365"
       y="568.61462"
       width="379.58459"
       height="86.892853"
       id="rect384" />
    <rect
       x="44.208645"
       y="594.53009"
       width="696.6673"
       height="312.5094"
       id="rect270" />
    <rect
       x="67.914459"
       y="498.03934"
       width="470.87357"
       height="294.29599"
       id="rect264" />
    <rect
       x="108.66313"
       y="461.8183"
       width="565.9538"
       height="344.09991"
       id="rect258" />
  </defs>
  <g
     id="layer1"
     transform="translate(-20.039259,-153.40065)">

    <g
       aria-label="yannis lang"
       transform="scale(0.26458333)"
       id="text382"
       style="white-space:pre;shape-inside:url(#rect384)">
      <path
         d="m 84.755865,643.19348 c 8.723963,0 13.444017,-3.71094 16.861985,-13.37891 l 9.76563,-27.21356 c 0.39063,-1.10677 0.6836,-2.53906 0.6836,-3.51562 0,-2.9948 -2.3112,-5.14324 -5.63152,-5.14324 -2.96224,0 -4.6875,1.4323 -5.59896,4.6224 l -6.640626,22.91668 h -0.195313 l -6.640628,-22.78647 c -0.944011,-3.45052 -2.506512,-4.75261 -5.598962,-4.75261 -3.41797,0 -6.022138,2.27865 -6.022138,5.3711 0,0.97656 0.260417,2.3112 0.716146,3.48308 l 10.807298,28.8086 -0.292969,0.6836 c -1.041668,1.5625 -2.701825,1.95312 -4.101565,1.95312 -0.553386,0 -0.976563,-0.0326 -1.529949,-0.0326 -2.539064,0 -4.134117,1.39974 -4.134117,3.67839 0,3.41797 2.669273,5.30599 7.552088,5.30599 z"
         fill="currentColor" />
      <path
         d="m 125.34833,630.66092 c 4.26433,0 8.59376,-1.98567 10.51433,-5.56641 h 0.22787 v 0.81381 c 0.32552,3.38542 2.50651,4.98047 5.56641,4.98047 3.28776,0 5.66406,-1.85547 5.66406,-5.79428 v -19.27084 c 0,-7.12891 -6.28255,-11.97917 -15.75522,-11.97917 -8.13802,0 -14.0625,2.66927 -15.5599,7.0638 -0.26042,0.6836 -0.35807,1.26954 -0.35807,2.08334 0,2.47396 1.95312,4.19922 4.72005,4.19922 1.75782,0 3.22266,-0.65104 4.5573,-1.98568 2.21354,-2.40885 3.58073,-3.125 6.05469,-3.125 3.02734,0 5.04557,1.5625 5.04557,4.39453 v 2.01823 l -8.30078,0.48828 c -9.1797,0.55339 -14.29038,4.26433 -14.29038,10.90496 0,6.41276 5.306,10.77474 11.91407,10.77474 z m 4.10157,-7.94271 c -2.76693,0 -4.6224,-1.36719 -4.6224,-3.61328 0,-2.08334 1.72526,-3.48308 4.75261,-3.71094 l 6.44531,-0.42318 v 2.44141 c 0,3.15755 -3.05989,5.30599 -6.57552,5.30599 z"
         fill="currentColor" />
      <path
         d="m 158.61658,630.88879 c 3.35286,0 5.76172,-1.95313 5.76172,-5.98959 V 610.088 c 0,-3.90626 2.27865,-6.67318 5.95703,-6.67318 3.77605,0 5.69662,2.40885 5.69662,6.44531 v 15.03907 c 0,4.03646 2.3763,5.98959 5.76172,5.98959 3.38542,0 5.76172,-1.95313 5.76172,-5.98959 v -17.51303 c 0,-8.43099 -4.39453,-13.37891 -12.30469,-13.37891 -5.4362,0 -8.88672,2.40885 -10.74219,7.09636 h -0.22787 v -1.33464 c 0,-3.67839 -2.3112,-5.82683 -5.85938,-5.82683 -3.54817,0 -5.59896,2.14844 -5.59896,5.79428 v 25.16277 c 0,4.03646 2.40886,5.98959 5.79428,5.98959 z"
         fill="currentColor" />
      <path
         d="m 198.75333,630.88879 c 3.35286,0 5.76172,-1.95313 5.76172,-5.98959 V 610.088 c 0,-3.90626 2.27864,-6.67318 5.95703,-6.67318 3.77605,0 5.69662,2.40885 5.69662,6.44531 v 15.03907 c 0,4.03646 2.3763,5.98959 5.76172,5.98959 3.38542,0 5.76172,-1.95313 5.76172,-5.98959 v -17.51303 c 0,-8.43099 -4.39453,-13.37891 -12.30469,-13.37891 -5.4362,0 -8.88672,2.40885 -10.74219,7.09636 h -0.22787 v -1.33464 c 0,-3.67839 -2.3112,-5.82683 -5.85938,-5.82683 -3.54818,0 -5.59896,2.14844 -5.59896,5.79428 v 25.16277 c 0,4.03646 2.40886,5.98959 5.79428,5.98959 z"
         fill="currentColor" />
      <path
         d="m 238.95516,591.07757 c 3.35287,0 5.89193,-2.44141 5.89193,-5.63151 0,-3.22266 -2.53906,-5.66407 -5.89193,-5.66407 -3.35286,0 -5.92448,2.44141 -5.92448,5.66407 0,3.1901 2.57162,5.63151 5.92448,5.63151 z m 0,39.81122 c 3.61329,0 5.76173,-2.18099 5.76173,-5.98959 v -24.96746 c 0,-3.77604 -2.14844,-5.98959 -5.76173,-5.98959 -3.64583,0 -5.76172,2.21355 -5.76172,5.98959 v 24.96746 c 0,3.8086 2.11589,5.98959 5.76172,5.98959 z"
         fill="currentColor" />
      <path
         d="m 265.87576,630.98644 c 9.86329,0 16.47137,-4.6875 16.47137,-12.10938 0,-5.30599 -3.28777,-8.20313 -10.90496,-9.70052 l -6.15235,-1.20443 c -3.38541,-0.68359 -4.45963,-1.66016 -4.45963,-3.19011 0,-1.92057 1.88802,-3.15755 4.6875,-3.15755 3.38542,0 5.14323,1.82292 6.90104,3.58073 0.97657,0.91146 2.63672,1.43229 3.93881,1.43229 2.99479,0 4.39453,-1.6276 4.39453,-3.84114 0,-0.55339 -0.0976,-1.10678 -0.29297,-1.66016 -1.26953,-3.90625 -6.73828,-7.29167 -14.84375,-7.29167 -9.79819,0 -15.88543,4.45964 -15.88543,11.58855 0,5.37109 3.61328,9.04948 10.61199,10.41667 l 6.18489,1.23698 c 3.22266,0.65104 4.36199,1.49739 4.36199,3.0599 0,1.92057 -1.92058,3.05989 -4.91537,3.05989 -3.22266,0 -5.4362,-0.97656 -7.38933,-3.125 -1.66016,-1.6276 -3.1901,-2.3763 -5.01302,-2.3763 -2.60417,0 -4.49219,1.79036 -4.49219,4.32943 0,0.58593 0.16276,1.26953 0.42318,1.95312 1.66015,4.06902 7.32422,6.9987 16.3737,6.9987 z"
         fill="currentColor" />
      <path
         d="m 305.3289,630.88879 c 3.35287,0 5.76172,-1.95313 5.76172,-5.98959 v -36.4909 c 0,-4.03646 -2.40885,-5.98959 -5.76172,-5.98959 -3.38542,0 -5.79427,1.95313 -5.79427,5.98959 v 36.4909 c 0,4.03646 2.40885,5.98959 5.79427,5.98959 z"
         fill="currentColor" />
      <path
         d="m 327.39922,630.66092 c 4.26432,0 8.59375,-1.98567 10.51433,-5.56641 h 0.22786 v 0.81381 c 0.32552,3.38542 2.50651,4.98047 5.56641,4.98047 3.28776,0 5.66407,-1.85547 5.66407,-5.79428 v -19.27084 c 0,-7.12891 -6.28256,-11.97917 -15.75522,-11.97917 -8.13803,0 -14.06251,2.66927 -15.55991,7.0638 -0.26041,0.6836 -0.35807,1.26954 -0.35807,2.08334 0,2.47396 1.95313,4.19922 4.72006,4.19922 1.75781,0 3.22265,-0.65104 4.55729,-1.98568 2.21354,-2.40885 3.58073,-3.125 6.05469,-3.125 3.02735,0 5.04558,1.5625 5.04558,4.39453 v 2.01823 l -8.30079,0.48828 c -9.17969,0.55339 -14.29037,4.26433 -14.29037,10.90496 0,6.41276 5.30599,10.77474 11.91407,10.77474 z m 4.10156,-7.94271 c -2.76693,0 -4.6224,-1.36719 -4.6224,-3.61328 0,-2.08334 1.72527,-3.48308 4.75261,-3.71094 l 6.44532,-0.42318 v 2.44141 c 0,3.15755 -3.0599,5.30599 -6.57553,5.30599 z"
         fill="currentColor" />
      <path
         d="m 360.66746,630.88879 c 3.35287,0 5.76173,-1.95313 5.76173,-5.98959 V 610.088 c 0,-3.90626 2.27864,-6.67318 5.95703,-6.67318 3.77604,0 5.69662,2.40885 5.69662,6.44531 v 15.03907 c 0,4.03646 2.3763,5.98959 5.76172,5.98959 3.38542,0 5.76172,-1.95313 5.76172,-5.98959 v -17.51303 c 0,-8.43099 -4.39453,-13.37891 -12.30469,-13.37891 -5.4362,0 -8.88673,2.40885 -10.7422,7.09636 h -0.22786 v -1.33464 c 0,-3.67839 -2.3112,-5.82683 -5.85938,-5.82683 -3.54818,0 -5.59896,2.14844 -5.59896,5.79428 v 25.16277 c 0,4.03646 2.40886,5.98959 5.79427,5.98959 z"
         fill="currentColor" />
      <path
         d="m 411.61151,643.48645 c 12.10938,0 18.94532,-5.46875 18.94532,-15.07162 v -28.6784 c 0,-3.97136 -2.3763,-5.79428 -5.69661,-5.79428 -3.32032,0 -5.82683,1.82292 -5.82683,5.79428 v 1.20443 h -0.22786 c -1.59506,-3.97136 -5.46876,-6.77084 -10.61199,-6.77084 -9.04948,0 -14.25782,6.31511 -14.25782,17.41537 0,10.7422 5.3711,17.28517 14.09506,17.28517 5.20834,0 9.3099,-2.57162 10.70964,-6.31511 h 0.22787 v 5.66407 c 0,4.0039 -2.76693,6.54297 -7.51954,6.54297 -3.02734,-0.0325 -5.5013,-1.39974 -7.94271,-3.45052 -1.13933,-0.97657 -2.37631,-1.39974 -3.77605,-1.39974 -2.79948,0 -4.55729,1.75781 -4.55729,4.03646 0,0.94401 0.19531,1.92057 0.7487,2.89713 2.18099,3.67839 7.77995,6.60808 15.69011,6.64063 z m 0.78125,-22.78647 c -4.16667,0 -6.64063,-3.19011 -6.64063,-8.91927 0,-5.69662 2.50652,-9.21225 6.64063,-9.21225 4.10157,0 6.67318,3.54818 6.67318,9.21225 0,5.72916 -2.53906,8.91927 -6.67318,8.91927 z"
         fill="currentColor" />
    </g>
  </g>
</svg>
