<?xml version="1.0" encoding="UTF-8" standalone="no"?>
<svg
   viewBox="0 0 20980 20980"
   fill="none"
   xmlns="http://www.w3.org/2000/svg"
   xmlns:svg="http://www.w3.org/2000/svg">
   <style>
    #path2 {
      fill: black;
    }
    #path4 {
      fill: black;
    }
    #path6 {
      fill: black;
    }
    @media (prefers-color-scheme: dark) {
      #path2 {
        fill: white;
      }
      #path4 {
        fill: white;
      }
      #path6 {
        fill: white;
      }
    }
  </style>
  <path
     d="M 14410.262,3184.2802 V 671.75813 C 13639.484,439.36167 12834.484,294.19772 12000.407,246.77893 V 2622.1892 8605.4497 11015.082 15837.03 h 2409.855 V 11015.082 8605.4497 Z m 0,17223.9618 c 2095.595,-635.904 3911.375,-1921.353 5207.338,-3623.731 h -3299.181 c -577.972,454.056 -1219.467,828.71 -1908.157,1111.209 -752.213,306.209 -1562.581,501.476 -2409.855,562.09 v 2375.411 c 834.077,-44.734 1639.077,-192.582 2409.855,-424.979 v 0"
     fill="currentColor"
     id="path4" />
  <path
     d="m 8466.5023,17895.72 c 752.191,306.209 1562.4467,501.476 2409.7217,562.09 v 2375.411 c -834.078,-44.734 -1641.6947,-192.582 -2409.7217,-424.979 -889.4591,-269.079 -1728.7484,-657.152 -2499.4147,-1142.747 -2768.628,-1747.112 -4645.1574,-4774.53 -4803.5181,-8250.413 -7.9179,-158.361 -10.5573,-316.721 -10.5573,-475.082 0,-659.8359 63.3442,-1306.4756 182.1148,-1934.5503 C 1876.1703,5752.2732 3594.3613,3313.5634 5967.0876,1817.1892 V 4810.1614 C 4906.0934,5826.3091 4127.509,7135.2452 3760.6401,8605.4497 H 5967.0876 8466.5023 V 3184.2802 671.75813 C 9234.5293,439.36167 10042.146,294.19772 10876.224,246.77893 V 2622.1892 8605.4497 11015.082 H 8466.5023 5967.0876 3536.2958 c 121.4099,2061.373 1031.9614,3911.375 2430.7918,5254.757 717.8794,688.913 1565.0867,1243.176 2499.4147,1625.881 v 0"
     fill="currentColor"
     id="path6" />
</svg>